<svg xmlns="http://www.w3.org/2000/svg" width="1600" height="980" viewBox="0 0 1600 980">
  <defs>
    <style>
      .title { font: 700 30px Arial, sans-serif; fill: #0f172a; }
      .label { font: 600 18px Arial, sans-serif; fill: #0f172a; }
      .small { font: 500 15px Arial, sans-serif; fill: #334155; }
      .q { fill: #fff7ed; stroke: #c2410c; stroke-width: 2; rx: 14; ry: 14; }
      .m { fill: #eff6ff; stroke: #1d4ed8; stroke-width: 2; rx: 14; ry: 14; }
      .o { fill: #ecfeff; stroke: #0f766e; stroke-width: 2; rx: 14; ry: 14; }
      .arrow { stroke: #475569; stroke-width: 3; fill: none; marker-end: url(#arrowhead); }
    </style>
    <marker id="arrowhead" markerWidth="10" markerHeight="7" refX="9" refY="3.5" orient="auto">
      <polygon points="0 0, 10 3.5, 0 7" fill="#475569" />
    </marker>
  </defs>

  <text x="60" y="60" class="title">Analyst Question Mapping</text>

  <rect x="70" y="140" width="520" height="78" class="q" />
  <text x="330" y="185" text-anchor="middle" class="label">Is this graph an alert-review candidate?</text>

  <rect x="70" y="260" width="520" height="78" class="q" />
  <text x="330" y="305" text-anchor="middle" class="label">Which AFC pattern does it look like?</text>

  <rect x="70" y="380" width="520" height="78" class="q" />
  <text x="330" y="425" text-anchor="middle" class="label">What does the pattern mean in AFC terms?</text>

  <rect x="70" y="500" width="520" height="78" class="q" />
  <text x="330" y="545" text-anchor="middle" class="label">Why should this graph be reviewed?</text>

  <rect x="70" y="620" width="520" height="78" class="q" />
  <text x="330" y="665" text-anchor="middle" class="label">Which SAR/STR red flags are graph-supported?</text>

  <rect x="70" y="740" width="520" height="78" class="q" />
  <text x="330" y="785" text-anchor="middle" class="label">What should the analyst check next?</text>

  <rect x="690" y="170" width="360" height="72" class="m" />
  <text x="870" y="213" text-anchor="middle" class="label">Graph Features + Motifs</text>

  <rect x="690" y="320" width="360" height="72" class="m" />
  <text x="870" y="363" text-anchor="middle" class="label">AFC Typology Rules</text>

  <rect x="690" y="470" width="360" height="72" class="m" />
  <text x="870" y="513" text-anchor="middle" class="label">Scoring Policy</text>

  <rect x="690" y="620" width="360" height="72" class="m" />
  <text x="870" y="663" text-anchor="middle" class="label">SAR Red Flag Skills</text>

  <rect x="690" y="770" width="360" height="72" class="m" />
  <text x="870" y="813" text-anchor="middle" class="label">Investigation Playbooks</text>

  <rect x="1150" y="380" width="330" height="220" class="o" />
  <text x="1315" y="435" text-anchor="middle" class="label">Final Narrative</text>
  <text x="1315" y="475" text-anchor="middle" class="small">JSON + PDF investigation support</text>
  <text x="1315" y="510" text-anchor="middle" class="small">No final SAR decision</text>

  <path d="M590 179 L690 206" class="arrow" />
  <path d="M590 299 L690 356" class="arrow" />
  <path d="M590 419 L690 356" class="arrow" />
  <path d="M590 539 L690 506" class="arrow" />
  <path d="M590 659 L690 656" class="arrow" />
  <path d="M590 779 L690 806" class="arrow" />

  <path d="M1050 206 L1150 420" class="arrow" />
  <path d="M1050 356 L1150 460" class="arrow" />
  <path d="M1050 506 L1150 500" class="arrow" />
  <path d="M1050 656 L1150 540" class="arrow" />
  <path d="M1050 806 L1150 580" class="arrow" />
</svg>
